<mxfile host="app.diagrams.net" agent="Mozilla/5.0 (Windows NT 10.0; Win64; x64) AppleWebKit/537.36 (KHTML, like Gecko) Chrome/136.0.0.0 Safari/537.36" version="27.0.6">
  <diagram name="Page-1" id="shAZ0OnqiR2Sdfiq7z3p">
    <mxGraphModel dx="786" dy="459" grid="1" gridSize="10" guides="1" tooltips="1" connect="1" arrows="1" fold="1" page="1" pageScale="1" pageWidth="827" pageHeight="1169" math="0" shadow="0">
      <root>
        <mxCell id="0" />
        <mxCell id="1" parent="0" />
        <mxCell id="pLu6eWVjyuE7Q3TJb7QW-1" value="" style="whiteSpace=wrap;html=1;aspect=fixed;" vertex="1" parent="1">
          <mxGeometry x="240" width="450" height="450" as="geometry" />
        </mxCell>
        <mxCell id="pLu6eWVjyuE7Q3TJb7QW-7" style="edgeStyle=orthogonalEdgeStyle;rounded=0;orthogonalLoop=1;jettySize=auto;html=1;endArrow=none;startFill=0;" edge="1" parent="1" source="pLu6eWVjyuE7Q3TJb7QW-3" target="pLu6eWVjyuE7Q3TJb7QW-5">
          <mxGeometry relative="1" as="geometry" />
        </mxCell>
        <mxCell id="pLu6eWVjyuE7Q3TJb7QW-34" style="edgeStyle=orthogonalEdgeStyle;shape=connector;rounded=0;orthogonalLoop=1;jettySize=auto;html=1;strokeColor=default;align=center;verticalAlign=middle;fontFamily=Helvetica;fontSize=11;fontColor=default;labelBackgroundColor=default;startFill=0;endArrow=none;" edge="1" parent="1" source="pLu6eWVjyuE7Q3TJb7QW-3" target="pLu6eWVjyuE7Q3TJb7QW-33">
          <mxGeometry relative="1" as="geometry" />
        </mxCell>
        <mxCell id="pLu6eWVjyuE7Q3TJb7QW-50" style="edgeStyle=orthogonalEdgeStyle;shape=connector;rounded=0;orthogonalLoop=1;jettySize=auto;html=1;entryX=0;entryY=0.5;entryDx=0;entryDy=0;strokeColor=default;align=center;verticalAlign=middle;fontFamily=Helvetica;fontSize=11;fontColor=default;labelBackgroundColor=default;startFill=0;endArrow=none;" edge="1" parent="1" source="pLu6eWVjyuE7Q3TJb7QW-3" target="pLu6eWVjyuE7Q3TJb7QW-9">
          <mxGeometry relative="1" as="geometry" />
        </mxCell>
        <mxCell id="pLu6eWVjyuE7Q3TJb7QW-3" value="Visiteur" style="shape=umlActor;verticalLabelPosition=bottom;verticalAlign=top;html=1;" vertex="1" parent="1">
          <mxGeometry x="140" y="70" width="30" height="60" as="geometry" />
        </mxCell>
        <mxCell id="pLu6eWVjyuE7Q3TJb7QW-5" value="Créer un compte" style="ellipse;whiteSpace=wrap;html=1;" vertex="1" parent="1">
          <mxGeometry x="270" y="60" width="100" height="30" as="geometry" />
        </mxCell>
        <mxCell id="pLu6eWVjyuE7Q3TJb7QW-6" value="Convoiturage-France" style="text;html=1;align=center;verticalAlign=middle;resizable=0;points=[];autosize=1;strokeColor=none;fillColor=none;" vertex="1" parent="1">
          <mxGeometry x="460" width="140" height="30" as="geometry" />
        </mxCell>
        <mxCell id="pLu6eWVjyuE7Q3TJb7QW-9" value="Valider" style="ellipse;whiteSpace=wrap;html=1;fontFamily=Helvetica;fontSize=11;fontColor=default;labelBackgroundColor=default;" vertex="1" parent="1">
          <mxGeometry x="390" y="80" width="90" height="40" as="geometry" />
        </mxCell>
        <mxCell id="pLu6eWVjyuE7Q3TJb7QW-17" style="edgeStyle=orthogonalEdgeStyle;shape=connector;rounded=0;orthogonalLoop=1;jettySize=auto;html=1;entryX=0;entryY=0.5;entryDx=0;entryDy=0;strokeColor=default;align=center;verticalAlign=middle;fontFamily=Helvetica;fontSize=11;fontColor=default;labelBackgroundColor=default;startFill=0;endArrow=none;" edge="1" parent="1" source="pLu6eWVjyuE7Q3TJb7QW-14" target="pLu6eWVjyuE7Q3TJb7QW-16">
          <mxGeometry relative="1" as="geometry" />
        </mxCell>
        <mxCell id="pLu6eWVjyuE7Q3TJb7QW-26" style="edgeStyle=orthogonalEdgeStyle;shape=connector;rounded=0;orthogonalLoop=1;jettySize=auto;html=1;strokeColor=default;align=center;verticalAlign=middle;fontFamily=Helvetica;fontSize=11;fontColor=default;labelBackgroundColor=default;startFill=0;endArrow=none;entryX=0;entryY=0.5;entryDx=0;entryDy=0;" edge="1" parent="1" source="pLu6eWVjyuE7Q3TJb7QW-14" target="pLu6eWVjyuE7Q3TJb7QW-25">
          <mxGeometry relative="1" as="geometry">
            <mxPoint x="155" y="360" as="targetPoint" />
          </mxGeometry>
        </mxCell>
        <mxCell id="pLu6eWVjyuE7Q3TJb7QW-14" value="Membre" style="shape=umlActor;verticalLabelPosition=bottom;verticalAlign=top;html=1;fontFamily=Helvetica;fontSize=11;fontColor=default;labelBackgroundColor=default;" vertex="1" parent="1">
          <mxGeometry x="140" y="220" width="30" height="60" as="geometry" />
        </mxCell>
        <mxCell id="pLu6eWVjyuE7Q3TJb7QW-16" value="Editer profile" style="ellipse;whiteSpace=wrap;html=1;fontFamily=Helvetica;fontSize=11;fontColor=default;labelBackgroundColor=default;" vertex="1" parent="1">
          <mxGeometry x="240" y="200" width="100" height="40" as="geometry" />
        </mxCell>
        <mxCell id="pLu6eWVjyuE7Q3TJb7QW-20" value="Envoyer message privé" style="ellipse;whiteSpace=wrap;html=1;fontFamily=Helvetica;fontSize=11;fontColor=default;labelBackgroundColor=default;" vertex="1" parent="1">
          <mxGeometry x="270" y="290" width="130" height="40" as="geometry" />
        </mxCell>
        <mxCell id="pLu6eWVjyuE7Q3TJb7QW-21" style="edgeStyle=orthogonalEdgeStyle;shape=connector;rounded=0;orthogonalLoop=1;jettySize=auto;html=1;entryX=0.5;entryY=0.5;entryDx=0;entryDy=0;entryPerimeter=0;strokeColor=default;align=center;verticalAlign=middle;fontFamily=Helvetica;fontSize=11;fontColor=default;labelBackgroundColor=default;startFill=0;endArrow=none;" edge="1" parent="1" source="pLu6eWVjyuE7Q3TJb7QW-20" target="pLu6eWVjyuE7Q3TJb7QW-14">
          <mxGeometry relative="1" as="geometry">
            <Array as="points">
              <mxPoint x="220" y="310" />
              <mxPoint x="220" y="250" />
            </Array>
          </mxGeometry>
        </mxCell>
        <mxCell id="pLu6eWVjyuE7Q3TJb7QW-25" value="proposer une annonce" style="ellipse;whiteSpace=wrap;html=1;fontFamily=Helvetica;fontSize=11;fontColor=default;labelBackgroundColor=default;" vertex="1" parent="1">
          <mxGeometry x="260" y="355" width="124" height="30" as="geometry" />
        </mxCell>
        <mxCell id="pLu6eWVjyuE7Q3TJb7QW-27" value="Utilisateur doit préciser une date pour proposer ou consulter les annonces" style="shape=note;whiteSpace=wrap;html=1;backgroundOutline=1;darkOpacity=0.05;fontFamily=Helvetica;fontSize=11;fontColor=default;labelBackgroundColor=default;" vertex="1" parent="1">
          <mxGeometry x="660" y="210" width="110" height="130" as="geometry" />
        </mxCell>
        <mxCell id="pLu6eWVjyuE7Q3TJb7QW-28" value="consulter message privées" style="ellipse;whiteSpace=wrap;html=1;fontFamily=Helvetica;fontSize=11;fontColor=default;labelBackgroundColor=default;" vertex="1" parent="1">
          <mxGeometry x="274" y="242.5" width="140" height="40" as="geometry" />
        </mxCell>
        <mxCell id="pLu6eWVjyuE7Q3TJb7QW-33" value="consulter les annonces" style="ellipse;whiteSpace=wrap;html=1;fontFamily=Helvetica;fontSize=11;fontColor=default;labelBackgroundColor=default;" vertex="1" parent="1">
          <mxGeometry x="250" y="130" width="120" height="40" as="geometry" />
        </mxCell>
        <mxCell id="pLu6eWVjyuE7Q3TJb7QW-37" value="Visiteur n&#39;a pas un accès&amp;nbsp;&lt;div&gt;aux information&amp;nbsp; de contact&amp;nbsp;&lt;/div&gt;&lt;div&gt;des membres ayant proposer les annonces.&lt;/div&gt;" style="shape=note;whiteSpace=wrap;html=1;backgroundOutline=1;darkOpacity=0.05;fontFamily=Helvetica;fontSize=11;fontColor=default;labelBackgroundColor=default;" vertex="1" parent="1">
          <mxGeometry x="620" y="10" width="142" height="130" as="geometry" />
        </mxCell>
        <mxCell id="pLu6eWVjyuE7Q3TJb7QW-41" style="edgeStyle=orthogonalEdgeStyle;shape=connector;rounded=0;orthogonalLoop=1;jettySize=auto;html=1;entryX=0;entryY=1;entryDx=0;entryDy=0;strokeColor=default;align=center;verticalAlign=middle;fontFamily=Helvetica;fontSize=11;fontColor=default;labelBackgroundColor=default;startFill=0;endArrow=none;" edge="1" parent="1" source="pLu6eWVjyuE7Q3TJb7QW-14" target="pLu6eWVjyuE7Q3TJb7QW-33">
          <mxGeometry relative="1" as="geometry">
            <Array as="points">
              <mxPoint x="155" y="180" />
              <mxPoint x="270" y="180" />
              <mxPoint x="270" y="134" />
            </Array>
          </mxGeometry>
        </mxCell>
        <mxCell id="pLu6eWVjyuE7Q3TJb7QW-42" style="edgeStyle=orthogonalEdgeStyle;shape=connector;rounded=0;orthogonalLoop=1;jettySize=auto;html=1;entryX=0.5;entryY=0.5;entryDx=0;entryDy=0;entryPerimeter=0;strokeColor=default;align=center;verticalAlign=middle;fontFamily=Helvetica;fontSize=11;fontColor=default;labelBackgroundColor=default;startFill=0;endArrow=none;" edge="1" parent="1" source="pLu6eWVjyuE7Q3TJb7QW-28" target="pLu6eWVjyuE7Q3TJb7QW-14">
          <mxGeometry relative="1" as="geometry" />
        </mxCell>
        <mxCell id="pLu6eWVjyuE7Q3TJb7QW-43" value="envoyer un mail" style="ellipse;whiteSpace=wrap;html=1;fontFamily=Helvetica;fontSize=11;fontColor=default;labelBackgroundColor=default;" vertex="1" parent="1">
          <mxGeometry x="380" y="10" width="90" height="30" as="geometry" />
        </mxCell>
        <mxCell id="pLu6eWVjyuE7Q3TJb7QW-44" value="&amp;lt;&amp;lt;include&amp;gt;&amp;gt;" style="html=1;verticalAlign=bottom;labelBackgroundColor=none;endArrow=open;endFill=0;dashed=1;rounded=0;strokeColor=default;align=center;fontFamily=Helvetica;fontSize=11;fontColor=default;edgeStyle=orthogonalEdgeStyle;entryX=0;entryY=1;entryDx=0;entryDy=0;exitX=0.393;exitY=-0.044;exitDx=0;exitDy=0;exitPerimeter=0;" edge="1" parent="1" source="pLu6eWVjyuE7Q3TJb7QW-5" target="pLu6eWVjyuE7Q3TJb7QW-43">
          <mxGeometry width="160" relative="1" as="geometry">
            <mxPoint x="330" y="160" as="sourcePoint" />
            <mxPoint x="490" y="160" as="targetPoint" />
          </mxGeometry>
        </mxCell>
        <mxCell id="pLu6eWVjyuE7Q3TJb7QW-49" value="vérifier l&#39;authentification" style="ellipse;whiteSpace=wrap;html=1;fontFamily=Helvetica;fontSize=11;fontColor=default;labelBackgroundColor=default;" vertex="1" parent="1">
          <mxGeometry x="468" y="140" width="124" height="60" as="geometry" />
        </mxCell>
        <mxCell id="pLu6eWVjyuE7Q3TJb7QW-51" value="&amp;lt;&amp;lt;include&amp;gt;&amp;gt;" style="html=1;verticalAlign=bottom;labelBackgroundColor=none;endArrow=open;endFill=0;dashed=1;rounded=0;strokeColor=default;align=center;fontFamily=Helvetica;fontSize=11;fontColor=default;edgeStyle=orthogonalEdgeStyle;entryX=0;entryY=0.5;entryDx=0;entryDy=0;exitX=1;exitY=0.5;exitDx=0;exitDy=0;" edge="1" parent="1" source="pLu6eWVjyuE7Q3TJb7QW-33" target="pLu6eWVjyuE7Q3TJb7QW-49">
          <mxGeometry width="160" relative="1" as="geometry">
            <mxPoint x="330" y="220" as="sourcePoint" />
            <mxPoint x="490" y="220" as="targetPoint" />
          </mxGeometry>
        </mxCell>
      </root>
    </mxGraphModel>
  </diagram>
</mxfile>
